# xmcd CD database file
#
# Track frame offsets:
#	150
#	19402
#	45665
#	57250
#	75615
#	93177
#	108210
#	147757
#	166482
#	182862
#	204297
#	220160
#	236792
#	249705
#	269687
#	282260
#	298025
#	324362
#
# Disc length: 4442 seconds
#
# Revision: 0
# Processed by: cddbd v1.4PL0 Copyright (c) Steve Scherf et al.
# Submitted via: Feurio! 1.65 - http://www.feurio.com
#
DISCID=0b115812
DTITLE=Metropolitan Blues All-Stars - Trying Times
DYEAR=1995
DGENRE=Blues
TTITLE0=Life Of The Party
TTITLE1=You Gotta Help Me
TTITLE2=V-8 Ford Blues
TTITLE3=Call My Job
TTITLE4=Pike County Love Stomp
TTITLE5=I Only Lacks A Dime
TTITLE6=Five Long Years
TTITLE7=Messing With Your Hoochie Coo
TTITLE8=Trying Times
TTITLE9=Night Patrol
TTITLE10=She's Good To Me
TTITLE11=Miss Information
TTITLE12=Don't Dog My Cat
TTITLE13=New Woman Blues
TTITLE14=Bluegrass Boogie Woogie
TTITLE15=Eyesight To The Blind
TTITLE16=Little Red Rooster
TTITLE17=All Momma's Children
EXTD=ARD Herman's 1995 HE 008-2
EXTT0=
EXTT1=
EXTT2=
EXTT3=
EXTT4=
EXTT5=
EXTT6=
EXTT7=
EXTT8=
EXTT9=
EXTT10=
EXTT11=
EXTT12=
EXTT13=
EXTT14=
EXTT15=
EXTT16=
EXTT17=
PLAYORDER=
